<svg width="2164" height="2164" viewBox="0 0 2164 2164" fill="none" xmlns="http://www.w3.org/2000/svg">
<circle cx="1082" cy="1082" r="1082" fill="#EEEEEE"/>
<path d="M182.713 888.777C185.126 870.162 188.918 853.27 194.089 838.102C199.26 822.933 205.465 810.178 212.705 800.181C219.944 789.839 228.218 782.944 237.526 779.152C246.489 775.36 256.486 775.015 266.828 778.118C276.825 781.221 284.409 786.736 290.615 794.32C296.475 802.249 300.612 811.557 303.37 822.933C305.783 834.309 307.162 847.065 307.162 861.199C307.162 875.333 306.128 890.846 303.714 907.393C301.646 923.94 298.888 939.798 295.096 954.621C291.304 969.445 287.167 982.545 281.651 993.576C276.136 1004.95 269.931 1013.92 262.002 1020.47C254.418 1027.02 245.454 1030.46 235.457 1030.46C226.149 1030.46 217.876 1027.02 210.292 1020.12C202.708 1013.23 196.502 1003.23 191.676 990.473C186.85 977.718 183.403 962.205 181.679 944.969C179.955 927.732 180.3 908.772 182.713 888.777ZM184.437 889.122C183.403 897.051 183.747 903.946 185.471 910.151C187.195 916.356 189.952 921.182 194.434 925.319C198.916 929.456 204.776 932.903 212.015 935.316C219.255 937.729 228.218 939.453 238.905 940.832C249.247 941.866 258.21 942.211 265.794 941.177C273.378 940.487 279.928 938.764 284.754 936.006C289.925 933.248 293.717 929.8 296.475 924.974C299.233 920.148 301.301 914.287 301.991 907.738C302.68 900.843 302.68 894.982 301.301 889.811C299.922 884.64 297.164 880.159 293.028 876.367C288.891 872.575 283.03 869.127 275.791 866.37C268.552 863.612 259.589 860.854 248.902 858.786C238.215 856.717 229.252 855.683 221.668 855.683C214.084 855.683 207.534 856.717 202.708 859.13C197.537 861.543 193.745 865.335 190.642 870.162C187.195 874.988 185.471 881.193 184.437 889.122Z" fill="black"/>
<path d="M399.894 604.028C400.239 604.372 400.929 604.717 401.273 605.062C386.105 630.572 372.661 657.461 360.25 685.729C359.905 685.385 359.216 685.385 358.871 685.04C359.905 681.248 360.94 677.456 361.974 674.008C344.048 665.39 326.466 656.427 308.54 647.809C305.438 646.43 302.68 646.085 300.267 646.775C297.853 647.464 296.13 649.188 295.096 651.601C294.061 654.359 293.717 657.461 294.751 660.909C295.785 664.356 297.164 667.803 299.232 671.251C301.301 674.698 303.024 677.456 304.748 679.869C306.472 682.282 307.851 684.006 308.54 684.695C322.329 690.9 336.119 696.761 349.908 702.966C351.977 699.519 353.7 696.416 355.769 692.969C356.113 693.314 356.803 693.314 357.148 693.658C345.082 722.271 334.74 751.918 326.122 783.289C325.432 783.289 325.087 782.944 324.398 782.944C325.087 778.118 326.122 772.947 326.811 768.121C303.369 760.192 279.927 751.918 256.83 743.989C255.107 749.16 253.728 754.331 252.349 759.502C251.659 759.158 251.314 759.158 250.625 758.813C256.83 728.132 264.759 698.14 273.722 669.527C281.996 673.319 290.269 676.766 298.543 680.558C299.232 679.869 299.922 679.524 300.611 678.835C297.164 673.319 294.061 667.459 291.993 661.253C289.925 654.703 289.235 647.809 289.925 640.225C290.614 632.641 293.027 624.022 297.509 614.714C301.645 606.096 305.782 599.546 310.264 595.065C314.401 590.238 318.537 587.48 322.674 585.757C326.811 584.378 330.603 583.688 334.05 584.378C337.842 585.067 341.29 586.102 344.737 588.17C360.25 597.478 375.418 606.441 390.931 615.749C394.379 611.267 397.137 607.82 399.894 604.028Z" fill="black"/>
<path d="M402.658 602.649C394.039 563.694 388.524 523.36 385.766 482.337C384.731 484.06 383.353 485.439 382.318 487.163C371.632 500.952 365.082 514.052 362.324 525.084C359.566 536.115 360.255 545.423 364.737 552.662C367.495 557.144 370.253 561.625 373.011 566.107C372.666 566.796 371.976 567.831 371.632 568.52C358.876 564.039 346.466 559.557 333.711 555.076C363.013 505.779 397.142 461.308 434.718 420.974C433.684 461.653 436.097 501.987 440.923 540.941C444.026 536.46 447.473 532.323 450.575 528.186C457.125 519.568 461.607 511.984 464.02 504.4C466.433 497.16 466.433 489.921 464.02 483.371C462.296 477.855 460.573 472.34 458.849 467.169C459.539 466.479 460.228 465.79 460.573 465.1C472.294 469.582 484.015 474.063 495.735 478.889C460.917 515.776 429.547 557.144 402.658 602.649Z" fill="black"/>
<path d="M500.906 354.441C514.695 343.065 527.45 335.481 538.827 332.033C550.203 328.586 559.855 327.897 568.129 329.965C576.058 332.033 582.263 336.17 586.4 341.686C561.924 358.578 538.482 376.849 516.074 396.498C515.73 396.154 515.385 395.809 515.04 395.12C521.935 387.535 528.829 380.296 535.724 373.057C530.898 367.196 526.416 362.37 522.624 358.923C518.832 355.131 515.385 353.062 511.937 352.373C508.49 351.683 505.043 352.717 501.595 355.475C498.493 357.888 497.114 360.991 497.114 364.094C497.114 367.196 498.493 371.333 501.251 376.159C504.353 380.985 508.835 387.191 515.73 394.43C518.487 397.533 521.935 400.291 526.072 402.359C530.208 404.772 534.345 406.151 539.171 407.185C543.998 407.875 548.824 407.875 554.34 406.496C559.511 405.117 564.682 402.359 570.197 398.222C572.611 396.154 575.024 393.741 577.782 390.983C580.195 388.225 582.608 384.778 584.331 381.675C586.4 378.228 587.779 374.78 588.813 371.333C589.847 367.886 590.537 364.438 590.192 361.336C591.571 360.991 592.95 360.646 593.984 360.302C593.639 368.23 592.26 375.125 589.847 381.675C587.434 388.225 583.987 394.085 580.195 399.256C576.403 404.427 572.266 409.254 567.784 413.39C563.647 417.527 559.511 421.319 555.719 424.422C546.756 432.006 538.137 438.211 529.519 442.693C521.245 447.174 513.316 449.932 506.077 451.311C498.838 452.69 492.288 452.69 486.427 451.656C480.567 450.277 475.741 448.208 471.948 444.416C466.777 439.245 463.33 433.385 461.951 426.49C460.572 419.596 461.262 412.011 464.02 404.083C466.433 396.154 470.914 387.535 477.119 379.262C483.669 370.643 491.598 362.37 500.906 354.441Z" fill="black"/>
<path d="M775.994 166.217C791.163 161.046 804.607 158.288 815.984 156.909C827.36 155.53 836.667 156.219 843.562 158.288C850.457 160.356 854.594 164.148 855.973 169.664C857.351 174.835 855.973 180.006 851.836 184.832C847.699 189.658 842.183 194.14 834.944 198.622C827.704 202.758 820.12 206.895 811.502 210.342C803.228 214.134 794.955 217.237 787.715 219.65C788.06 220.34 788.06 220.684 788.405 221.374C798.057 218.271 808.055 215.513 818.052 213.445C828.049 211.377 837.357 210.687 845.975 210.687C854.594 210.687 861.833 212.066 867.693 214.479C873.554 216.892 877.001 221.029 878.38 226.2C879.759 231.716 879.414 236.542 877.001 241.368C874.588 246.195 870.451 250.676 864.936 254.813C859.075 258.95 851.836 263.087 842.528 266.879C833.565 270.671 822.878 274.808 810.812 278.944C776.339 290.665 742.9 304.455 710.495 320.312C710.15 319.968 709.806 319.278 709.806 318.933C713.253 316.175 716.7 313.762 720.148 311.004C703.256 278.255 686.709 245.85 669.817 213.1C664.99 214.479 660.164 215.858 655.338 217.237C654.993 216.892 654.648 216.203 654.648 215.858C693.948 196.553 734.282 180.006 775.994 166.217ZM760.826 174.145C754.276 176.559 749.105 178.282 744.969 180.006C740.832 181.73 738.074 183.109 736.005 183.798C750.484 217.927 764.618 252.4 779.097 286.528C782.2 286.184 788.75 284.115 798.747 280.323C803.573 278.6 807.71 276.186 811.847 272.739C815.639 269.292 818.397 265.155 819.776 259.639C821.155 254.124 820.81 247.574 818.052 239.989C814.949 231.026 809.778 225.511 802.194 223.442C794.61 221.719 784.958 222.753 773.581 226.89C767.376 228.958 761.171 231.026 755.311 233.44C754.966 232.75 754.966 232.405 754.621 231.716C760.482 229.303 766.687 226.89 772.892 224.476C779.097 222.063 784.268 219.305 788.75 215.858C793.231 212.411 796.334 208.274 797.713 203.448C799.436 198.622 799.092 192.761 796.678 186.211C794.265 179.661 790.129 175.18 783.579 172.767C776.684 171.043 769.1 171.388 760.826 174.145Z" fill="black"/>
<path d="M962.496 156.219C976.286 154.496 988.351 154.151 999.038 155.53C1009.72 156.909 1018.69 159.322 1025.93 162.769C1033.17 166.217 1038.68 170.698 1042.47 175.869C1046.27 181.04 1048.33 186.901 1048.68 193.45C1049.02 198.966 1047.65 204.482 1044.54 209.653C1041.44 214.824 1036.96 219.65 1030.75 224.132C1024.55 228.613 1016.96 232.405 1007.66 235.853C998.349 238.955 987.662 241.368 975.252 243.092C962.152 244.816 950.775 245.505 940.778 244.816C930.781 244.126 922.163 242.403 914.923 239.645C907.684 236.887 902.168 233.439 897.687 228.958C893.55 224.476 890.447 219.65 889.068 214.134C887.689 207.929 888.034 201.724 890.447 195.519C892.86 189.314 896.997 183.798 903.202 178.282C909.407 173.111 917.336 168.285 927.334 164.493C938.02 161.046 949.396 157.943 962.496 156.219ZM962.841 157.943C958.36 158.632 955.257 161.046 953.533 165.527C951.81 170.009 951.12 175.18 951.465 181.73C951.81 188.279 952.499 195.174 953.878 202.414C954.567 207.585 955.602 212.411 956.636 217.237C957.67 222.063 959.049 226.545 960.773 230.337C962.496 234.129 964.22 236.887 966.633 238.955C969.046 241.024 971.804 241.713 974.907 241.368C977.665 241.024 980.078 239.645 981.457 236.887C982.836 234.474 983.87 231.026 984.559 226.89C985.249 222.753 985.249 218.271 984.904 213.445C984.559 208.619 984.215 203.448 983.525 198.277C982.836 192.761 982.146 187.59 981.112 182.419C980.078 177.248 979.044 172.766 977.665 168.974C976.286 165.182 974.217 162.08 971.804 160.011C969.391 158.288 966.288 157.598 962.841 157.943Z" fill="black"/>
<path d="M1109.35 235.853C1096.25 235.508 1086.25 233.095 1079.7 228.613C1072.81 223.787 1069.36 216.892 1069.02 206.895C1068.67 190.003 1067.98 173.456 1067.64 156.564C1062.81 156.564 1057.99 156.909 1053.5 156.909C1053.5 156.219 1053.5 155.875 1053.5 155.185C1080.39 152.083 1107.63 149.669 1135.21 148.635C1134.17 170.009 1133.14 191.382 1132.1 213.1C1132.1 216.548 1132.45 219.306 1134.17 221.029C1135.55 223.098 1137.27 224.132 1139.69 224.132C1142.1 224.132 1144.51 223.442 1147.27 221.374C1150.03 219.306 1152.79 216.548 1155.54 213.1C1158.3 209.653 1160.72 205.516 1163.13 201.035C1164.16 186.901 1165.54 173.111 1166.58 158.977C1161.75 158.633 1157.27 158.288 1152.44 157.943C1152.44 157.254 1152.44 156.909 1152.44 156.219C1179.68 155.53 1206.91 156.219 1234.49 157.943C1230.35 184.143 1225.87 210.342 1221.73 236.197C1226.22 236.887 1230.35 237.576 1234.49 238.266C1234.49 238.955 1234.14 239.3 1234.14 239.99C1209.32 238.266 1184.5 237.576 1159.68 237.921C1160.37 228.958 1161.06 219.995 1162.09 211.032C1161.41 210.687 1160.72 209.998 1160.03 209.653C1153.82 218.961 1146.58 225.855 1138.65 229.992C1130.03 234.129 1120.73 235.853 1109.35 235.853Z" fill="black"/>
<path d="M1294.13 256.537C1283.79 226.89 1271.38 197.243 1257.24 167.94C1252.76 166.561 1248.63 165.527 1244.14 164.148C1244.14 163.459 1244.49 163.114 1244.49 162.425C1277.93 167.596 1310.68 174.49 1343.08 183.453C1342.74 184.143 1342.74 184.487 1342.39 185.177C1337.57 184.487 1332.4 183.453 1327.57 182.764C1334.81 201.724 1341.36 220.684 1347.22 239.645C1348.6 239.99 1349.98 240.334 1351.36 241.024C1351.7 240.679 1352.05 240.334 1352.39 239.99C1355.15 237.576 1357.22 234.819 1359.29 231.371C1361.35 227.924 1363.08 224.132 1364.46 219.995C1365.15 217.582 1365.84 214.479 1366.18 211.377C1366.52 208.274 1366.52 204.827 1365.84 201.724C1365.15 198.622 1363.77 195.519 1361.35 193.106C1359.29 190.693 1355.84 188.624 1351.36 187.59C1351.36 186.901 1351.7 186.556 1351.7 185.866C1373.76 192.072 1395.83 198.966 1417.2 206.895C1416.86 207.24 1416.86 207.929 1416.51 208.274C1411.34 206.895 1406.17 205.861 1401 204.482C1375.14 223.787 1351.01 244.126 1327.91 265.5C1317.57 262.397 1305.85 259.295 1294.13 256.537ZM1403.41 201.724C1409.27 222.408 1414.79 243.092 1418.92 263.776C1420.3 264.466 1421.68 264.81 1423.06 265.5C1423.41 265.155 1423.75 264.81 1424.44 264.466C1427.2 262.397 1429.96 259.639 1432.37 256.537C1434.78 253.434 1436.85 249.642 1438.57 245.85C1439.61 243.437 1440.64 240.679 1441.33 237.576C1442.02 234.474 1442.02 231.371 1441.68 227.924C1441.33 224.821 1439.95 221.719 1438.23 218.961C1436.16 216.203 1433.06 214.135 1428.92 212.411C1429.27 212.066 1429.27 211.377 1429.61 211.032C1450.98 218.961 1472.36 227.924 1493.04 237.576C1492.7 237.921 1492.7 238.611 1492.35 238.955C1487.18 237.232 1482.36 235.508 1477.18 233.784C1449.95 251.021 1423.75 268.947 1398.93 288.252C1387.55 284.115 1376.18 279.979 1364.8 276.186C1362.04 264.466 1358.6 252.745 1355.15 241.024C1369.97 227.579 1386.52 214.479 1403.41 201.724Z" fill="black"/>
<path d="M1541.31 330.31C1532.69 325.139 1524.42 319.968 1516.84 314.452C1509.25 308.936 1502.7 303.765 1497.19 298.594C1491.67 293.423 1487.88 288.252 1485.81 283.081C1483.74 277.91 1483.74 273.084 1486.15 268.258C1488.22 264.121 1492.36 261.018 1497.87 259.295C1503.74 257.571 1510.63 257.226 1518.9 257.916C1527.18 258.95 1536.14 261.018 1546.14 264.466C1555.79 267.913 1566.13 272.739 1576.13 278.944C1584.4 283.771 1591.99 289.631 1599.57 296.181C1607.16 302.731 1613.36 309.626 1618.53 316.865C1623.7 324.104 1627.15 330.654 1628.87 336.86C1630.6 343.065 1629.56 348.236 1626.12 352.373C1624.05 355.13 1620.6 357.199 1616.12 358.233C1611.64 359.267 1606.12 358.922 1599.23 357.544C1592.33 356.165 1584.4 353.062 1574.75 348.58C1565.1 344.099 1554.07 337.894 1541.31 330.31ZM1498.56 375.125C1489.6 369.954 1482.36 365.128 1476.16 360.301C1469.95 355.475 1465.47 350.994 1462.02 346.857C1458.58 342.72 1456.16 338.928 1455.13 335.136C1454.09 331.689 1454.09 328.586 1455.47 326.173C1457.2 323.07 1459.95 320.657 1463.4 319.278C1467.19 317.899 1471.33 317.555 1476.5 318.244C1481.67 318.933 1486.84 320.657 1492.01 323.415C1500.63 327.897 1506.49 332.723 1509.6 337.549C1512.7 342.375 1513.39 346.857 1510.97 350.304C1509.25 353.407 1506.49 355.13 1503.39 356.165C1500.29 356.854 1497.19 357.199 1493.39 356.509C1489.95 356.165 1486.5 355.13 1483.05 354.441C1479.6 353.407 1477.19 352.717 1474.78 352.028C1472.71 351.338 1471.33 351.338 1470.99 352.028C1470.64 352.717 1470.99 354.096 1472.71 355.82C1474.43 357.544 1476.5 359.267 1479.6 361.68C1482.71 363.749 1486.15 365.817 1489.95 368.23C1496.5 372.022 1502.7 374.435 1508.56 375.814C1514.42 377.193 1519.59 377.538 1524.07 376.504C1528.56 375.47 1532 373.401 1534.07 370.299C1536.14 367.196 1536.83 363.749 1535.8 359.957C1534.76 356.165 1532.35 352.028 1528.21 347.546C1524.07 343.065 1518.21 337.894 1510.29 332.723C1502.36 327.552 1492.7 321.691 1480.98 315.831C1481.33 315.141 1481.67 314.452 1482.02 313.762C1495.12 314.452 1508.22 315.486 1521.66 316.865C1522.35 317.555 1522.7 318.244 1523.39 318.933C1519.94 318.589 1516.84 318.244 1513.39 317.899C1513.73 318.933 1514.42 319.623 1514.77 320.657C1526.49 327.207 1537.17 333.757 1546.14 340.307C1555.1 346.857 1563.03 353.407 1569.23 359.267C1575.44 365.472 1580.27 370.988 1583.71 376.159C1587.16 381.33 1588.88 385.812 1589.57 389.948C1590.26 394.085 1589.23 397.533 1587.16 400.29C1582.68 405.806 1576.47 407.875 1568.2 407.185C1559.93 406.151 1549.93 402.704 1537.86 397.188C1527.18 391.327 1513.73 383.743 1498.56 375.125ZM1543.38 329.62C1547.17 331.689 1550.27 332.723 1553.03 332.378C1555.79 332.033 1558.55 330.654 1561.31 327.896C1564.06 325.483 1566.82 322.036 1569.58 317.555C1573.03 312.384 1575.78 307.557 1578.2 303.076C1580.61 298.249 1581.64 294.113 1581.64 289.976C1581.64 286.184 1579.23 282.736 1575.09 280.323C1571.3 277.91 1567.17 277.565 1563.37 279.289C1559.58 281.013 1556.13 283.771 1552.69 287.907C1549.24 292.044 1546.14 296.526 1542.69 301.697C1539.93 305.834 1538.21 309.97 1536.83 313.418C1535.8 316.865 1535.45 319.968 1536.48 322.725C1537.52 324.794 1539.93 327.207 1543.38 329.62ZM1590.95 292.044C1586.13 287.907 1580.96 284.115 1576.13 279.979C1580.27 282.392 1584.75 284.46 1589.92 286.184C1595.09 287.907 1600.26 289.286 1605.43 290.321C1610.6 291.355 1615.77 292.389 1620.94 292.734C1625.77 293.423 1630.25 293.768 1634.04 293.768C1637.84 293.768 1640.59 293.768 1642.32 293.423C1642.66 303.42 1642.66 313.073 1642.66 323.07C1626.46 311.005 1609.91 299.628 1593.02 288.942C1592.33 290.321 1591.64 291.01 1590.95 292.044Z" fill="black"/>
<path d="M1601.63 400.98C1601.97 400.635 1602.32 399.946 1602.66 399.601C1606.46 401.669 1610.59 403.738 1614.38 405.806C1630.24 386.846 1646.1 367.886 1661.61 349.27C1657.82 346.167 1654.03 343.409 1650.58 340.307C1650.93 339.962 1651.27 339.273 1651.62 338.928C1674.37 353.752 1696.78 369.954 1718.15 387.191C1712.29 393.396 1706.08 399.601 1700.22 405.806C1700.57 406.496 1700.57 407.53 1700.91 408.219C1704.7 407.185 1708.84 406.496 1712.29 406.151C1716.08 405.806 1719.53 405.806 1722.63 406.151C1728.15 406.496 1733.66 408.564 1738.83 411.322C1744.35 414.425 1749.52 418.561 1754.69 424.422C1758.48 428.559 1761.93 433.04 1764.34 438.211C1767.1 443.382 1768.48 448.208 1768.82 453.035C1769.17 457.861 1767.45 461.653 1764.34 464.411C1761.59 466.824 1758.14 467.513 1754 467.169C1749.86 466.824 1745.38 464.756 1740.9 461.998C1736.07 458.895 1731.59 454.758 1726.77 449.587C1722.63 444.761 1719.18 440.279 1716.77 435.798C1714.36 431.316 1712.98 427.18 1712.98 423.388C1712.63 419.596 1713.67 416.838 1716.08 414.425C1717.11 413.39 1718.15 412.701 1719.18 412.356C1720.22 412.011 1721.25 411.667 1722.29 411.322C1723.32 410.977 1724.01 410.632 1724.7 410.288C1725.39 409.598 1725.39 409.254 1724.7 408.564C1724.01 407.875 1722.29 407.185 1719.87 407.185C1717.46 407.185 1713.67 407.53 1708.15 408.564C1706.08 408.909 1703.67 409.598 1701.26 410.632C1698.5 411.667 1695.74 412.701 1692.64 413.735C1681.95 424.767 1671.61 435.453 1660.92 446.485C1663.68 450.277 1666.09 453.724 1668.51 457.516C1668.16 457.861 1667.82 458.206 1667.47 458.55C1646.44 437.522 1624.38 418.561 1601.63 400.98Z" fill="black"/>
<path d="M1835.02 527.152C1842.95 539.218 1848.46 550.594 1852.25 561.626C1856.05 572.312 1857.77 581.965 1857.77 590.583C1857.77 599.201 1856.05 606.441 1852.94 612.646C1849.84 618.507 1845.36 623.333 1839.84 626.091C1834.67 628.849 1829.16 629.883 1822.95 629.193C1816.75 628.504 1810.2 626.091 1803.3 622.299C1796.41 618.162 1789.51 612.646 1782.27 605.062C1775.03 597.478 1768.14 588.515 1760.9 577.483C1753.32 566.107 1747.46 555.765 1743.66 546.113C1739.87 536.46 1737.11 527.842 1736.42 520.258C1735.73 512.329 1736.08 505.779 1738.15 499.918C1740.22 494.058 1743.32 489.232 1747.8 485.784C1752.97 481.647 1758.49 479.234 1765.38 478.89C1771.93 478.545 1779.52 479.924 1787.1 483.026C1794.68 486.474 1802.96 491.645 1810.89 499.229C1819.5 506.124 1827.43 515.431 1835.02 527.152ZM1833.64 528.186C1830.88 524.05 1827.43 522.326 1822.61 522.671C1817.78 523.015 1812.61 524.739 1806.75 528.186C1800.89 531.289 1795.03 535.081 1788.82 539.563C1784.69 542.665 1780.55 545.768 1776.41 548.87C1772.28 551.973 1769.17 555.076 1766.42 558.178C1763.66 561.281 1761.93 564.383 1760.9 567.486C1760.21 570.589 1760.56 573.691 1762.62 576.449C1764.35 578.862 1766.76 580.586 1769.52 580.931C1772.62 581.275 1776.07 580.586 1779.86 579.552C1784 578.173 1788.13 576.449 1792.62 574.036C1797.1 571.623 1801.58 568.865 1805.72 566.107C1810.54 563.004 1815.02 559.902 1819.16 556.799C1823.3 553.697 1827.09 550.594 1829.85 547.492C1832.6 544.389 1834.67 541.286 1835.36 538.184C1836.4 534.392 1835.71 531.289 1833.64 528.186Z" fill="black"/>
<path d="M1921.2 701.587C1927.75 720.547 1930.86 737.095 1930.51 750.539C1930.17 763.984 1927.75 774.671 1923.27 782.599C1918.79 790.184 1912.93 795.01 1906.04 797.078C1897.76 763.294 1887.76 730.889 1876.04 700.208C1876.39 699.863 1877.08 699.863 1877.42 699.519C1882.25 709.516 1887.08 719.513 1891.9 729.855C1899.14 727.097 1905 724.684 1909.48 722.271C1914.31 719.858 1917.41 717.1 1919.14 713.998C1920.86 710.895 1920.86 706.758 1919.14 701.932C1917.76 697.795 1915.34 695.037 1912.24 693.658C1909.14 692.279 1905 691.935 1899.49 692.969C1893.97 694.003 1886.73 696.416 1877.77 700.208C1873.98 701.932 1870.18 704.345 1866.74 707.448C1863.29 710.55 1860.53 714.342 1858.12 719.169C1855.7 723.65 1854.33 729.166 1853.98 735.026C1853.64 740.887 1854.67 747.437 1857.08 755.021C1858.12 758.468 1859.84 761.915 1861.56 766.052C1863.63 769.844 1865.7 773.636 1868.46 777.084C1871.22 780.531 1873.98 783.634 1876.73 786.391C1879.49 789.149 1882.59 791.218 1885.7 792.252C1885.7 793.976 1885.35 795.355 1885.35 797.078C1878.11 793.286 1871.56 788.805 1866.39 783.289C1861.22 777.773 1856.74 771.913 1852.6 765.363C1848.81 758.813 1845.71 752.608 1842.95 746.402C1840.19 740.197 1838.12 734.682 1836.05 729.511C1831.57 717.1 1828.47 705.724 1827.09 695.727C1825.71 685.385 1825.37 676.422 1826.4 668.837C1827.44 660.909 1829.5 654.359 1832.61 649.188C1835.71 643.672 1839.5 639.88 1843.98 637.467C1850.53 634.019 1857.08 632.985 1863.98 634.364C1870.87 635.743 1877.77 639.19 1884.66 645.051C1891.56 650.911 1898.11 658.495 1904.31 668.148C1910.86 677.456 1916.38 688.487 1921.2 701.587Z" fill="black"/>
<path d="M1833.64 826.725C1834.33 826.725 1834.67 826.38 1835.36 826.38C1837.08 830.862 1839.15 835.344 1840.88 840.17C1875.35 831.551 1909.82 822.588 1943.95 813.97C1942.92 808.454 1941.54 802.939 1940.16 797.768C1940.85 797.768 1941.19 797.423 1941.88 797.423C1951.19 827.759 1959.12 859.475 1965.67 892.569C1956.71 893.948 1947.74 895.327 1939.13 896.706C1938.78 897.74 1938.44 898.774 1938.09 899.809C1940.5 901.187 1943.61 902.911 1947.05 905.669C1950.5 908.427 1954.29 911.874 1957.74 916.356C1961.19 920.837 1964.29 926.698 1967.05 933.592C1969.81 940.487 1971.53 948.416 1971.87 957.724C1972.91 972.547 1971.53 985.992 1968.43 997.023C1965.32 1008.05 1960.5 1016.67 1954.29 1022.88C1948.09 1028.74 1941.19 1031.84 1933.61 1031.84C1922.23 1031.84 1912.93 1028.05 1906.03 1021.15C1899.14 1014.26 1893.97 1005.3 1890.52 994.265C1887.07 983.234 1885 971.513 1883.97 959.103C1882.93 947.037 1882.93 937.384 1884.31 929.456C1885.35 921.871 1886.73 916.011 1888.45 911.874C1890.17 907.737 1891.21 905.324 1892.24 903.945C1879.14 906.014 1866.04 908.082 1852.94 910.151C1852.94 915.322 1852.6 920.493 1852.25 926.008C1851.56 926.008 1851.22 926.008 1850.53 926.353C1846.74 891.535 1840.88 858.441 1833.64 826.725ZM1889.48 926.008C1890.17 931.524 1891.9 936.006 1895.34 939.108C1898.45 942.211 1902.93 944.279 1908.1 945.313C1913.27 946.348 1919.13 946.692 1925.68 946.003C1933.95 945.313 1940.5 943.934 1944.99 942.211C1949.81 940.487 1952.91 938.074 1954.64 935.316C1956.36 932.558 1957.4 929.456 1957.05 925.664C1956.71 922.906 1956.02 920.148 1954.98 917.735C1953.95 915.322 1952.22 912.908 1949.81 910.84C1947.4 908.427 1944.64 906.358 1941.54 904.29C1938.09 902.222 1933.95 900.153 1929.13 897.74C1921.89 898.774 1914.65 900.153 1907.41 901.187C1904.31 901.532 1901.89 902.566 1899.48 903.945C1897.07 905.324 1895 907.393 1893.62 909.461C1891.9 911.529 1890.86 914.287 1889.83 917.045C1889.14 919.803 1889.14 922.906 1889.48 926.008Z" fill="black"/>
<path d="M211.205 1303.84C210.434 1299.21 210.434 1294.58 210.948 1290.47C211.462 1286.35 212.748 1281.98 214.548 1277.87C216.348 1273.75 219.177 1268.86 222.777 1263.72C225.091 1260.64 227.406 1257.29 229.463 1253.95C231.52 1250.61 233.577 1247.26 235.634 1243.66C237.691 1240.06 239.491 1236.21 241.549 1231.84C243.349 1227.72 245.406 1222.84 247.463 1217.95C247.206 1214.35 246.949 1210.75 246.949 1207.41C233.577 1208.18 220.463 1209.21 207.091 1209.98C206.834 1215.12 206.577 1220.26 206.577 1225.41C206.062 1225.41 205.805 1225.41 205.291 1225.41C203.748 1202.26 202.977 1178.61 202.977 1154.43C203.491 1154.43 203.748 1154.43 204.262 1154.43C204.777 1159.83 205.291 1164.98 205.805 1170.38C233.063 1169.86 260.32 1169.35 287.835 1168.83C288.349 1163.95 288.607 1159.32 289.121 1154.43C289.635 1154.43 289.892 1154.43 290.407 1154.43C290.407 1171.41 290.921 1188.12 291.692 1204.58C277.292 1205.61 262.892 1206.38 248.492 1207.41C248.492 1209.72 248.749 1211.78 249.006 1214.09C249.263 1216.15 249.52 1218.46 249.52 1220.52C250.034 1225.15 251.32 1229.52 253.12 1233.64C254.92 1237.75 256.977 1241.61 259.292 1244.95C261.863 1248.55 264.435 1251.38 267.006 1253.95C269.32 1256.52 271.892 1258.32 274.206 1259.86C276.521 1261.41 278.835 1262.44 280.892 1262.95C282.949 1263.72 285.006 1263.72 286.549 1263.72C289.121 1263.46 290.921 1261.66 291.949 1258.58C293.235 1255.49 293.492 1251.12 292.978 1245.21C293.492 1245.21 293.749 1245.21 294.264 1244.95C296.064 1265.78 298.635 1286.09 301.978 1305.89C301.464 1305.89 301.207 1306.15 300.692 1306.15C299.407 1302.04 298.378 1297.92 297.35 1293.55C294.521 1294.07 291.435 1293.55 288.092 1292.27C284.749 1290.98 281.406 1288.67 278.063 1285.84C274.721 1283.01 271.378 1279.41 268.292 1275.04C264.949 1270.41 261.863 1265.26 259.292 1259.35C256.463 1253.69 254.406 1248.04 252.606 1242.38C250.806 1236.72 249.777 1231.84 249.006 1227.21C248.749 1227.21 248.492 1227.21 248.492 1227.21C249.006 1235.44 249.006 1242.64 248.749 1248.81C248.492 1254.98 247.977 1260.64 246.949 1265.52C245.92 1270.41 244.377 1275.04 242.32 1279.15C240.263 1283.27 237.691 1287.12 234.606 1290.98C230.748 1295.61 227.663 1299.72 225.348 1303.32C223.034 1306.92 221.491 1310.01 220.463 1313.09C219.434 1316.18 218.92 1319.01 218.663 1321.58C218.663 1323.38 218.92 1324.92 219.434 1326.47C218.92 1326.47 218.663 1326.72 218.148 1326.72C216.863 1324.41 215.577 1322.09 214.805 1319.27C214.034 1316.69 213.262 1313.87 212.748 1311.29C211.72 1308.72 211.462 1306.15 211.205 1303.84Z" fill="black"/>
<path d="M229.465 1391.27C244.894 1370.44 260.837 1350.12 277.551 1330.84C277.037 1326.47 276.78 1322.09 276.266 1317.72C276.78 1317.72 277.037 1317.47 277.551 1317.47C281.151 1338.04 285.266 1358.09 289.894 1377.64C289.38 1377.64 289.123 1377.9 288.609 1377.9C287.066 1373.52 285.78 1369.15 284.494 1364.78C272.408 1379.7 260.58 1395.12 249.008 1410.81C249.265 1411.84 249.522 1412.87 249.779 1413.64C258.265 1416.21 266.751 1418.52 275.237 1420.84C276.78 1421.35 278.323 1421.35 280.123 1421.35C281.923 1421.1 283.723 1420.84 285.78 1420.07C287.323 1419.55 288.609 1418.78 290.152 1417.5C291.437 1416.21 292.723 1414.67 293.494 1412.87C294.266 1411.07 294.78 1408.5 295.037 1405.67C295.037 1402.84 294.78 1399.5 293.752 1395.64C294.266 1395.64 294.523 1395.38 295.037 1395.38C299.409 1411.58 304.037 1427.52 309.438 1443.21C308.923 1443.47 308.666 1443.47 308.152 1443.72C306.352 1439.61 304.552 1435.5 302.752 1431.38C280.123 1425.72 257.494 1419.04 234.865 1411.07C232.808 1404.9 231.008 1398.21 229.465 1391.27ZM299.152 1429.84C288.609 1444.5 278.58 1459.67 268.808 1475.1C269.065 1476.13 269.58 1476.9 269.837 1477.93C278.58 1479.73 287.066 1481.27 295.552 1482.81C297.095 1483.07 298.637 1483.07 300.437 1482.81C302.237 1482.55 304.037 1481.78 305.838 1481.01C307.38 1480.5 308.666 1479.47 309.952 1478.44C311.238 1477.15 312.266 1475.61 313.038 1473.55C313.809 1471.5 314.066 1469.18 314.066 1466.61C314.066 1464.04 313.295 1460.7 312.009 1457.1C312.523 1456.84 312.78 1456.84 313.295 1456.58C318.695 1472.01 324.609 1486.93 330.781 1501.58C330.524 1501.84 330.009 1501.84 329.752 1502.1C327.695 1498.24 325.638 1494.38 323.581 1490.53C300.695 1486.93 277.551 1482.3 254.408 1476.64C252.094 1470.47 250.037 1464.04 247.979 1457.61C255.951 1445.52 264.18 1433.7 272.408 1421.87C281.409 1424.7 290.409 1427.27 299.152 1429.84Z" fill="black"/>
<path d="M362.665 1563.56C366.523 1570.76 369.608 1577.18 371.665 1582.84C373.723 1588.5 374.751 1593.64 374.751 1598.01C374.751 1602.38 373.98 1606.5 371.923 1609.84C369.865 1613.18 367.037 1616.27 363.18 1618.58C353.922 1624.5 344.665 1630.67 335.408 1636.59C334.636 1637.1 334.122 1637.87 334.122 1638.9C334.122 1639.93 334.379 1640.96 335.151 1642.24C335.922 1643.53 337.208 1644.81 338.751 1646.36C340.294 1647.9 342.094 1649.19 343.894 1650.47C343.636 1650.73 343.122 1650.99 342.865 1651.24C341.065 1650.21 339.265 1648.67 337.465 1646.87C335.665 1645.07 333.608 1643.27 331.808 1640.96C330.008 1638.9 328.465 1636.59 326.922 1634.27C323.065 1628.1 321.007 1622.44 320.75 1617.56C320.493 1612.67 322.55 1609.07 326.922 1606.24C327.95 1605.47 328.979 1604.96 329.493 1604.7C330.008 1604.44 330.522 1604.18 330.779 1603.93C331.036 1603.67 331.551 1603.41 331.808 1603.16C331.808 1602.64 331.551 1601.87 331.551 1601.36C327.436 1600.58 323.322 1599.3 319.465 1597.5C315.35 1595.44 311.75 1593.13 307.893 1589.78C304.293 1586.7 300.95 1583.1 297.864 1579.24C294.779 1575.38 292.207 1571.27 290.15 1566.64C287.836 1561.76 286.036 1556.87 285.264 1552.24C284.235 1547.61 284.235 1543.76 285.007 1540.41C285.778 1537.07 287.578 1534.75 290.15 1533.47C296.579 1530.38 304.036 1534.5 313.293 1545.3C322.55 1556.1 333.093 1572.81 345.436 1594.93C351.608 1591.33 355.979 1587.73 358.551 1584.13C361.122 1580.53 362.408 1576.67 361.894 1572.3C361.38 1567.93 359.58 1562.27 355.979 1555.58C353.922 1551.47 351.865 1548.13 349.808 1545.04C347.751 1542.21 345.951 1539.9 344.408 1538.35C342.865 1536.81 341.836 1536.04 341.322 1536.3C341.065 1536.56 340.808 1537.33 341.065 1539.13C341.322 1540.67 341.836 1543.5 342.865 1547.1C344.665 1554.56 344.408 1558.93 341.579 1560.47C339.265 1561.76 336.436 1560.98 333.351 1557.9C330.265 1555.07 327.436 1550.7 324.608 1545.3C322.036 1540.16 320.493 1535.27 320.236 1530.9C319.722 1526.53 321.007 1523.7 323.579 1522.41C325.379 1521.38 327.95 1521.9 331.036 1523.7C334.122 1525.5 337.465 1528.33 341.065 1532.18C344.665 1536.04 348.522 1540.67 352.122 1545.81C355.979 1551.98 359.58 1557.64 362.665 1563.56ZM344.151 1595.96C338.236 1585.67 332.836 1577.44 327.693 1571.53C322.55 1565.61 317.922 1561.5 313.55 1559.44C309.436 1557.38 305.836 1557.13 302.75 1558.67C300.95 1559.7 299.921 1560.98 299.15 1562.78C298.636 1564.58 298.636 1566.64 298.893 1568.96C299.407 1571.27 300.179 1573.58 301.464 1576.41C303.007 1579.24 304.807 1582.07 307.122 1584.9C309.436 1587.73 312.007 1590.3 315.093 1592.61C318.179 1594.93 321.522 1596.73 325.122 1598.27C328.722 1599.81 332.579 1600.33 336.436 1600.33C339.265 1599.04 341.836 1597.5 344.151 1595.96Z" fill="black"/>
<path d="M372.944 1694.44C375.001 1697.79 376.801 1701.13 378.858 1704.21C378.601 1704.47 378.087 1704.73 377.83 1704.99C367.029 1691.1 356.744 1676.7 346.715 1662.04C346.972 1661.79 347.486 1661.53 347.743 1661.27C350.315 1664.36 352.886 1667.19 355.201 1670.01C378.344 1653.56 401.487 1636.84 424.373 1620.38C422.316 1617.3 420.002 1614.21 417.945 1610.87C418.202 1610.61 418.716 1610.36 418.973 1610.1C427.459 1619.87 435.945 1629.39 444.688 1638.64C421.03 1657.41 397.116 1675.93 372.944 1694.44Z" fill="black"/>
<path d="M386.328 1715.79C386.585 1715.53 387.1 1715.27 387.357 1715.02C390.185 1717.59 392.757 1720.42 395.585 1722.99C409.986 1710.9 424.386 1698.81 438.786 1686.99C436.215 1683.9 433.9 1681.07 431.329 1677.99C431.586 1677.73 432.1 1677.47 432.357 1677.21C441.615 1686.47 451.386 1695.47 461.158 1703.96C445.729 1717.84 430.3 1731.47 414.871 1745.36C417.186 1748.44 419.243 1751.53 421.557 1754.62C421.3 1754.87 421.043 1755.13 420.529 1755.39C408.7 1742.53 397.385 1729.42 386.328 1715.79ZM458.586 1686.47C456.272 1683.64 454.215 1680.81 452.929 1678.24C451.643 1675.67 450.872 1673.1 450.872 1671.04C450.872 1668.99 451.386 1667.44 452.672 1666.16C453.958 1665.13 455.758 1664.87 457.815 1665.13C459.872 1665.64 462.186 1666.67 464.501 1668.47C466.815 1670.27 469.129 1672.33 471.701 1675.16C474.272 1677.99 476.072 1680.81 477.358 1683.39C478.644 1685.96 479.415 1688.27 479.672 1690.33C479.93 1692.39 479.158 1693.93 478.13 1695.21C476.844 1696.24 475.301 1696.76 473.244 1696.24C471.187 1695.99 468.872 1694.96 466.558 1693.16C463.729 1691.87 461.158 1689.56 458.586 1686.47Z" fill="black"/>
<path d="M453.176 1791.13C446.747 1784.96 443.404 1779.56 442.89 1774.67C442.376 1769.79 444.433 1765.42 448.804 1761.3C459.347 1751.02 469.89 1740.73 480.433 1730.7C477.348 1727.62 474.262 1724.27 471.176 1721.19C471.433 1720.93 471.69 1720.67 472.205 1720.42C475.548 1723.5 478.89 1726.33 482.491 1729.16C493.034 1730.19 503.577 1730.7 514.12 1731.22C514.891 1731.99 515.405 1732.5 516.177 1733.27C511.548 1737.9 507.177 1742.53 502.548 1747.16C506.92 1752.3 511.034 1757.44 515.663 1762.33C515.405 1762.59 515.148 1762.84 514.891 1763.36C510.005 1758.99 505.119 1754.36 500.234 1749.73C488.662 1761.56 477.09 1773.64 465.519 1785.47C463.462 1787.53 462.433 1789.59 462.69 1791.64C462.947 1793.44 463.719 1795.5 465.776 1797.04C467.319 1798.59 469.376 1799.62 471.433 1800.39C473.49 1801.16 475.805 1801.67 478.376 1802.19C478.119 1802.7 477.862 1803.22 477.605 1803.99C475.805 1803.47 474.005 1802.96 471.948 1802.19C469.89 1801.42 467.833 1800.64 465.776 1799.62C463.719 1798.59 461.662 1797.3 459.604 1796.02C457.033 1794.73 455.233 1792.93 453.176 1791.13Z" fill="black"/>
<path d="M568.125 1801.42C576.611 1807.85 582.782 1814.02 586.897 1820.19C591.011 1826.36 593.068 1832.27 593.325 1837.93C593.583 1843.59 592.04 1848.73 588.954 1853.62C568.125 1839.99 547.81 1825.07 528.01 1809.39C528.267 1809.13 528.524 1808.87 528.782 1808.36C541.896 1818.39 555.525 1827.65 569.154 1836.65C572.497 1832.27 574.811 1827.9 575.839 1823.79C576.868 1819.67 576.868 1816.07 575.325 1812.47C574.039 1808.87 571.211 1805.53 566.839 1802.44C562.725 1799.36 558.611 1797.56 554.239 1796.79C549.868 1796.27 545.496 1796.79 541.125 1799.1C536.753 1801.16 532.382 1805.02 528.01 1810.16C525.696 1812.99 523.896 1816.33 522.867 1819.93C521.839 1823.53 521.581 1827.39 522.353 1831.5C522.867 1835.62 524.667 1839.47 527.239 1843.59C529.81 1847.7 533.41 1851.3 538.296 1854.9C541.382 1856.96 544.468 1859.02 547.81 1860.56C551.153 1862.1 554.753 1863.39 558.096 1864.16C561.439 1864.93 564.782 1865.45 568.125 1865.45C571.468 1865.45 574.554 1864.93 577.382 1863.9C577.639 1864.67 578.154 1865.45 578.411 1866.22C573.525 1867.76 568.639 1868.27 564.011 1868.27C559.125 1868.02 554.496 1867.25 549.868 1865.7C545.239 1864.16 540.867 1862.1 536.496 1859.79C532.382 1857.47 528.267 1854.65 524.41 1851.82C517.467 1846.67 512.067 1841.27 508.21 1835.87C504.095 1830.47 501.267 1825.07 499.981 1819.67C498.438 1814.53 498.181 1809.65 498.952 1805.02C499.724 1800.64 501.524 1796.79 504.353 1793.7C507.953 1789.84 512.067 1787.02 516.953 1785.73C521.839 1784.44 526.982 1784.19 532.639 1784.7C538.296 1785.47 543.953 1787.27 550.125 1790.1C556.039 1793.19 561.954 1796.79 568.125 1801.42Z" fill="black"/>
<path d="M583.559 1890.13C583.816 1889.87 584.073 1889.36 584.33 1889.1C587.673 1890.65 591.016 1892.45 594.359 1893.99C604.645 1878.3 614.673 1862.62 624.959 1846.93C621.616 1844.87 618.531 1843.07 615.445 1841.02C615.702 1840.76 615.959 1840.25 616.216 1839.99C627.788 1845.65 639.617 1850.79 651.445 1855.67C640.645 1873.42 630.102 1890.9 619.302 1908.65C622.388 1910.7 625.216 1913.02 628.302 1915.08C628.045 1915.33 627.788 1915.85 627.788 1916.1C612.616 1907.88 597.959 1899.13 583.559 1890.13ZM643.988 1840.5C640.902 1838.7 638.331 1836.65 636.274 1834.59C634.217 1832.53 632.931 1830.47 632.159 1828.67C631.388 1826.62 631.645 1825.07 632.417 1823.79C633.445 1822.5 634.731 1821.47 637.045 1821.47C639.102 1821.22 641.417 1821.47 644.245 1822.5C647.074 1823.27 649.903 1824.56 652.988 1826.36C656.074 1828.16 658.903 1830.22 660.703 1832.02C662.76 1834.07 664.046 1835.87 664.817 1837.93C665.588 1839.73 665.588 1841.53 664.56 1842.82C663.788 1844.36 662.246 1845.13 660.188 1845.39C658.131 1845.65 655.56 1845.39 652.731 1844.62C650.16 1843.85 647.074 1842.3 643.988 1840.5Z" fill="black"/>
<path d="M669.189 1939.5C661.474 1935.65 656.588 1931.79 654.788 1927.42C652.988 1923.05 653.503 1918.42 656.331 1913.02C663.531 1900.16 670.474 1887.56 677.674 1874.7C673.817 1872.65 669.96 1870.59 666.103 1868.79C666.36 1868.53 666.617 1868.02 666.617 1867.76C670.731 1869.56 674.846 1871.1 678.96 1872.9C689.246 1870.59 699.532 1868.02 709.561 1865.19C710.332 1865.7 711.361 1865.96 712.132 1866.47C709.303 1872.13 706.218 1878.05 703.389 1883.7C709.046 1887.3 714.704 1890.65 720.361 1893.99C720.104 1894.25 720.104 1894.76 719.846 1895.02C713.932 1892.45 707.761 1889.62 701.846 1886.79C694.389 1901.45 686.932 1916.1 679.217 1930.76C677.932 1933.33 677.674 1935.65 678.189 1937.19C678.96 1938.99 680.503 1940.28 682.56 1941.3C684.617 1942.33 686.675 1942.59 688.989 1942.85C691.303 1942.85 693.617 1942.85 695.932 1942.33C695.932 1942.85 695.675 1943.62 695.675 1944.13C693.875 1944.39 692.075 1944.39 689.76 1944.13C687.703 1944.13 685.389 1943.88 683.074 1943.62C680.76 1943.36 678.446 1942.85 676.132 1942.08C674.074 1941.3 671.503 1940.53 669.189 1939.5Z" fill="black"/>
<path d="M846.873 1934.62C857.159 1937.45 865.131 1940.79 871.302 1944.9C877.474 1949.02 881.588 1953.65 883.903 1958.79C886.217 1963.93 886.988 1969.33 885.703 1974.73C861.017 1969.59 836.845 1963.42 812.673 1956.48C812.93 1955.96 812.93 1955.7 813.187 1955.19C829.13 1959.3 845.073 1963.16 861.274 1966.25C862.817 1960.85 863.074 1956.22 862.559 1952.1C862.045 1947.99 860.502 1944.65 857.931 1941.82C855.359 1938.99 851.502 1937.19 846.359 1935.65C841.473 1934.36 836.845 1934.1 832.473 1935.13C828.102 1936.16 824.502 1938.48 821.159 1942.08C817.816 1945.68 815.244 1950.56 813.187 1956.99C811.901 1960.59 811.644 1964.19 812.159 1967.79C812.673 1971.39 813.701 1974.99 816.016 1978.59C818.073 1982.19 821.159 1985.28 825.016 1987.85C828.873 1990.68 833.759 1992.73 839.673 1994.28C843.273 1995.3 846.873 1995.82 850.731 1996.08C854.588 1996.33 858.188 1996.08 861.531 1995.82C865.131 1995.3 868.217 1994.53 871.302 1993.5C874.388 1992.48 876.96 1990.68 879.274 1988.88C879.788 1989.39 880.56 1989.9 881.074 1990.42C877.217 1993.5 872.845 1995.82 868.474 1997.36C863.845 1998.91 859.216 1999.68 854.331 1999.93C849.445 2000.19 844.559 1999.93 839.673 1999.42C834.787 1998.65 830.159 1997.88 825.53 1996.59C817.301 1994.28 810.359 1991.45 804.444 1987.85C798.787 1984.25 794.158 1980.39 790.815 1976.28C787.472 1972.16 785.415 1967.79 784.387 1963.42C783.358 1959.05 783.615 1954.93 785.158 1951.08C786.958 1946.19 789.787 1942.33 793.901 1939.25C797.758 1936.16 802.644 1934.1 808.044 1932.56C813.444 1931.28 819.616 1930.76 826.045 1931.02C832.73 1931.53 839.673 1932.82 846.873 1934.62Z" fill="black"/>
<path d="M1021.74 2025.13C1021.74 2025.65 1021.74 2025.91 1021.74 2026.42C1004.51 2025.39 987.281 2024.11 970.052 2022.05C970.052 2021.53 970.052 2021.28 970.309 2020.76C973.909 2020.76 977.766 2020.76 981.366 2020.76C982.909 2006.88 984.452 1992.99 985.995 1979.1C986.509 1974.73 985.738 1971.39 983.681 1968.82C981.623 1966.25 978.538 1964.96 974.166 1964.45C971.338 1964.19 968.252 1964.45 964.909 1965.48C961.823 1966.5 958.48 1968.05 955.394 1969.85C952.309 1971.65 949.48 1973.7 946.909 1975.76C944.337 1977.82 942.28 1979.62 940.48 1981.42C938.68 1992.48 936.88 2003.79 935.08 2014.85C938.68 2015.88 942.28 2016.65 945.623 2017.68C945.623 2018.19 945.623 2018.45 945.366 2018.96C928.394 2016.65 911.679 2014.08 894.965 2010.73C894.965 2010.22 895.222 2009.96 895.222 2009.45C899.079 2009.71 902.679 2009.96 906.536 2010.22C910.137 1992.22 913.737 1973.96 917.337 1955.96C913.737 1955.19 909.879 1954.68 906.279 1953.9C906.279 1953.39 906.536 1953.13 906.536 1952.62C919.394 1953.65 931.994 1954.16 944.851 1954.68C943.823 1961.36 942.537 1968.05 941.508 1974.73C942.023 1974.99 942.537 1975.5 943.051 1975.76C946.909 1972.16 951.28 1969.08 955.652 1966.25C960.28 1963.68 964.909 1961.88 970.309 1960.59C975.452 1959.3 981.109 1959.05 987.023 1959.82C992.166 1960.33 996.538 1961.36 1000.14 1962.65C1003.74 1963.93 1006.31 1965.73 1008.37 1967.79C1010.42 1969.85 1011.71 1972.16 1012.48 1974.99C1013.25 1977.82 1013.51 1980.65 1013.25 1983.99C1012.22 1997.11 1011.2 2010.22 1010.17 2023.33C1013.77 2023.85 1017.88 2024.36 1021.74 2025.13Z" fill="black"/>
<path d="M1152.62 2024.88C1137.19 2006.36 1122.79 1987.33 1109.42 1968.05C1105.82 1967.79 1102.22 1967.53 1098.62 1967.28C1098.62 1966.76 1098.62 1966.25 1098.62 1965.99C1115.85 1965.48 1133.07 1964.7 1150.3 1963.16C1150.3 1963.68 1150.3 1964.19 1150.3 1964.45C1146.45 1965.22 1142.59 1965.73 1138.73 1966.5C1149.53 1980.91 1160.59 1995.05 1172.42 2008.93C1173.19 2008.93 1174.22 2008.68 1174.99 2008.68C1178.33 2000.71 1181.93 1992.99 1185.02 1985.02C1185.53 1983.73 1186.05 1981.93 1186.3 1980.13C1186.56 1978.33 1186.3 1976.53 1186.05 1974.48C1185.79 1972.93 1185.28 1971.39 1184.5 1969.85C1183.73 1968.3 1182.45 1967.02 1181.16 1965.73C1179.62 1964.45 1177.56 1963.68 1175.25 1963.16C1172.93 1962.65 1169.85 1962.39 1166.5 1962.65C1166.5 1962.13 1166.5 1961.88 1166.25 1961.36C1180.65 1959.82 1195.05 1958.28 1209.45 1955.96C1209.45 1956.48 1209.7 1956.73 1209.7 1957.25C1205.85 1958.28 1201.99 1959.3 1198.13 1960.08C1189.65 1981.16 1180.39 2002.25 1170.36 2022.82C1164.45 2023.85 1158.53 2024.36 1152.62 2024.88Z" fill="black"/>
<path d="M1271.68 1942.85C1281.96 1940.53 1290.96 1939.76 1298.16 1940.79C1305.62 1941.82 1311.79 1943.88 1316.42 1947.22C1321.05 1950.56 1324.39 1954.93 1325.94 1960.59C1301.76 1967.28 1277.33 1972.93 1252.65 1977.82C1252.65 1977.3 1252.39 1977.05 1252.39 1976.53C1268.33 1972.93 1284.28 1968.82 1300.22 1964.45C1298.68 1959.05 1296.62 1954.68 1294.31 1951.33C1291.74 1947.99 1288.65 1945.68 1285.05 1944.39C1281.45 1943.1 1277.08 1943.1 1271.93 1944.39C1267.05 1945.42 1262.93 1947.48 1259.59 1950.3C1256.25 1953.13 1254.19 1956.99 1253.16 1961.62C1252.13 1966.25 1252.39 1971.9 1253.68 1978.59C1254.45 1982.19 1255.99 1985.53 1258.31 1988.62C1260.62 1991.7 1263.45 1994.28 1267.05 1996.33C1270.65 1998.39 1274.76 1999.68 1279.65 2000.45C1284.54 2000.96 1289.68 2000.71 1295.59 1999.42C1299.19 1998.65 1302.79 1997.36 1306.14 1995.82C1309.48 1994.28 1312.56 1992.48 1315.39 1990.42C1318.22 1988.36 1320.79 1986.3 1322.85 1983.73C1324.91 1981.42 1326.45 1978.85 1327.48 1976.02C1328.25 1976.28 1329.02 1976.53 1330.05 1976.53C1328.25 1981.16 1325.68 1985.02 1322.59 1988.36C1319.51 1991.71 1315.65 1994.79 1311.54 1997.11C1307.42 1999.68 1303.05 2001.48 1298.42 2003.28C1293.79 2004.82 1289.16 2006.11 1284.79 2007.13C1276.56 2008.93 1268.85 2009.71 1261.91 2009.19C1254.96 2008.68 1249.05 2007.39 1243.91 2005.33C1238.76 2003.28 1234.65 2000.45 1231.82 1997.11C1228.73 1993.76 1226.93 1989.9 1226.16 1986.05C1225.13 1980.9 1225.65 1976.02 1227.71 1971.65C1229.51 1967.28 1232.59 1963.16 1236.71 1959.3C1240.82 1955.7 1245.71 1952.36 1251.62 1949.53C1257.53 1946.7 1264.22 1944.65 1271.68 1942.85Z" fill="black"/>
<path d="M1352.16 1987.85C1351.9 1987.33 1351.9 1987.08 1351.65 1986.56C1354.99 1985.02 1358.33 1983.48 1361.67 1981.68C1355.76 1964.19 1349.59 1946.96 1343.67 1929.48C1340.07 1930.5 1336.47 1931.79 1332.87 1932.82C1332.62 1932.3 1332.62 1932.05 1332.36 1931.53C1343.93 1926.39 1355.5 1921.25 1367.07 1915.59C1369.39 1921.76 1371.7 1927.68 1374.02 1933.85C1374.53 1934.1 1375.3 1934.1 1375.82 1934.36C1376.59 1931.28 1377.36 1928.19 1378.13 1925.62C1378.9 1923.05 1379.93 1920.73 1381.22 1918.68C1383.02 1915.08 1385.59 1912.25 1388.42 1909.68C1391.25 1907.36 1394.85 1905.3 1398.96 1903.5C1401.79 1902.48 1404.62 1901.7 1407.7 1901.45C1410.53 1901.19 1413.36 1901.45 1415.67 1902.22C1417.99 1902.99 1419.79 1904.53 1420.82 1906.85C1421.59 1908.65 1421.59 1910.45 1420.82 1912.5C1420.05 1914.56 1418.5 1916.62 1416.45 1918.42C1414.39 1920.22 1411.3 1922.02 1407.7 1923.3C1404.62 1924.59 1401.53 1925.36 1398.7 1925.62C1395.87 1925.88 1393.56 1925.62 1391.5 1924.85C1389.7 1924.08 1388.42 1923.05 1387.65 1921.25C1387.39 1920.73 1387.39 1919.96 1387.13 1919.45C1387.13 1918.93 1387.13 1918.42 1387.13 1917.9C1387.13 1917.39 1387.13 1916.88 1386.87 1916.62C1386.62 1916.1 1386.36 1915.85 1385.59 1916.1C1384.56 1916.62 1383.53 1917.65 1382.5 1919.45C1381.47 1921.25 1380.45 1924.08 1379.42 1927.42C1378.9 1929.48 1378.39 1931.53 1377.87 1934.1C1377.36 1936.68 1377.1 1938.99 1376.85 1941.82C1380.7 1952.1 1384.82 1962.65 1388.67 1972.93C1392.53 1972.16 1396.13 1971.39 1399.99 1970.62C1400.25 1970.88 1400.25 1971.39 1400.5 1971.65C1384.82 1977.56 1368.62 1982.96 1352.16 1987.85Z" fill="black"/>
<path d="M1482.28 1940.02C1474.56 1943.62 1468.14 1944.9 1463.51 1943.88C1458.88 1942.59 1455.28 1939.5 1452.71 1934.1C1446.28 1920.99 1440.11 1907.88 1433.68 1894.76C1429.82 1896.56 1425.71 1898.36 1421.59 1899.9C1421.34 1899.65 1421.34 1899.13 1421.08 1898.88C1424.94 1896.82 1428.79 1894.76 1432.65 1892.45C1437.02 1883.19 1440.88 1873.67 1444.74 1864.42C1445.51 1863.9 1446.54 1863.65 1447.31 1863.13C1450.39 1868.79 1453.22 1874.45 1456.31 1880.36C1462.48 1878.3 1468.91 1875.99 1475.08 1873.67C1475.34 1873.93 1475.59 1874.45 1475.59 1874.7C1469.68 1877.79 1463.76 1880.62 1457.85 1883.45C1465.56 1898.1 1473.28 1912.76 1480.74 1927.42C1482.02 1929.99 1483.82 1931.53 1485.62 1932.05C1487.42 1932.56 1489.48 1932.3 1491.79 1931.28C1493.85 1930.25 1495.39 1928.96 1496.94 1927.42C1498.22 1925.62 1499.77 1923.82 1500.79 1921.76C1501.31 1922.28 1501.82 1922.53 1502.08 1923.05C1501.05 1924.33 1500.02 1925.88 1498.74 1927.68C1497.45 1929.22 1495.91 1931.02 1494.11 1932.56C1492.56 1934.1 1490.76 1935.65 1488.71 1936.93C1486.91 1937.7 1484.59 1938.99 1482.28 1940.02Z" fill="black"/>
<path d="M1516.22 1920.73C1515.97 1920.48 1515.71 1919.96 1515.71 1919.7C1518.79 1917.39 1521.62 1915.33 1524.71 1913.02C1515.19 1897.08 1505.94 1881.13 1496.42 1865.19C1493.08 1866.99 1489.99 1868.79 1486.65 1870.59C1486.39 1870.07 1486.14 1869.82 1485.88 1869.3C1496.42 1862.1 1506.45 1854.65 1516.48 1846.93C1520.08 1852.33 1523.42 1857.99 1527.02 1863.39C1527.54 1863.39 1528.31 1863.39 1528.82 1863.39C1528.82 1860.05 1529.08 1857.22 1529.34 1854.39C1529.59 1851.56 1530.11 1849.25 1530.88 1847.19C1532.17 1843.33 1533.71 1839.99 1536.28 1836.9C1538.59 1833.82 1541.68 1831.25 1545.54 1828.67C1548.11 1826.87 1550.68 1825.59 1553.51 1824.82C1556.34 1823.79 1558.91 1823.53 1561.22 1823.79C1563.54 1824.05 1565.59 1825.33 1567.14 1827.39C1568.17 1828.93 1568.68 1830.73 1568.42 1833.05C1568.17 1835.1 1567.14 1837.42 1565.34 1839.73C1563.54 1842.05 1560.97 1844.36 1557.88 1846.42C1555.05 1848.22 1552.22 1849.5 1549.39 1850.53C1546.57 1851.3 1544.25 1851.56 1542.19 1851.3C1540.14 1851.05 1538.59 1850.02 1537.82 1848.47C1537.57 1847.96 1537.31 1847.45 1537.05 1846.93C1536.79 1846.42 1536.79 1845.9 1536.79 1845.39C1536.79 1844.87 1536.54 1844.36 1536.28 1844.1C1536.02 1843.59 1535.51 1843.59 1534.99 1843.85C1533.97 1844.36 1533.19 1845.9 1532.68 1847.7C1532.17 1849.76 1531.65 1852.59 1531.39 1856.19C1531.39 1858.25 1531.39 1860.56 1531.39 1862.87C1531.39 1865.45 1531.65 1868.02 1531.91 1870.59C1537.82 1880.1 1543.99 1889.62 1549.91 1898.88C1553.51 1897.33 1556.85 1896.05 1560.45 1894.5C1560.71 1894.76 1560.97 1895.28 1561.22 1895.53C1546.31 1904.28 1531.39 1912.76 1516.22 1920.73Z" fill="black"/>
<path d="M1609.05 1782.39C1615.48 1777.24 1621.65 1772.87 1627.57 1770.04C1633.48 1766.96 1639.14 1765.16 1644.54 1764.39C1649.94 1763.62 1654.82 1763.87 1659.45 1765.42C1664.08 1766.96 1667.94 1769.27 1671.54 1772.87C1674.63 1776.22 1676.94 1780.07 1677.97 1784.7C1679 1789.07 1678.74 1794.22 1677.45 1799.36C1675.91 1804.76 1673.34 1810.16 1669.23 1815.82C1665.11 1821.47 1659.71 1827.39 1652.51 1833.05C1645.31 1838.7 1638.62 1843.07 1631.94 1846.16C1625.25 1848.99 1619.34 1850.79 1613.94 1851.05C1608.54 1851.3 1603.65 1850.53 1599.28 1848.73C1594.91 1846.93 1591.57 1844.1 1588.74 1840.5C1585.65 1836.39 1584.11 1832.02 1583.6 1827.39C1583.08 1822.76 1583.6 1817.87 1585.4 1812.73C1587.2 1807.59 1590.02 1802.7 1594.14 1797.56C1597.74 1792.42 1602.88 1787.53 1609.05 1782.39ZM1610.08 1783.42C1605.71 1787.02 1603.14 1790.87 1602.11 1795.24C1601.08 1799.62 1601.34 1804.24 1603.14 1809.13C1604.68 1814.02 1607.51 1818.9 1611.37 1823.53C1613.94 1826.87 1617.02 1829.7 1620.11 1832.02C1623.2 1834.33 1626.54 1836.13 1629.88 1836.9C1633.22 1837.93 1636.82 1837.93 1640.42 1837.16C1644.02 1836.39 1647.62 1834.59 1650.97 1831.76C1654.31 1828.93 1656.88 1825.85 1658.17 1822.76C1659.71 1819.42 1660.23 1816.07 1659.97 1812.47C1659.71 1808.87 1658.68 1805.27 1656.88 1801.93C1655.08 1798.59 1652.77 1795.24 1649.94 1791.9C1646.85 1788.56 1643.77 1785.73 1640.42 1783.42C1637.08 1781.1 1633.74 1779.56 1630.4 1778.53C1627.05 1777.5 1623.45 1777.5 1620.11 1778.27C1616.77 1779.04 1613.42 1780.84 1610.08 1783.42Z" fill="black"/>
<path d="M1732.75 1757.44C1725.8 1764.9 1719.12 1769.27 1712.95 1770.3C1706.78 1771.33 1701.12 1769.27 1695.72 1764.13C1686.46 1755.13 1677.2 1746.13 1668.2 1736.87C1665.37 1739.7 1662.8 1742.27 1659.97 1744.84C1659.72 1744.59 1659.46 1744.33 1659.2 1744.07C1667.43 1734.04 1675.4 1723.76 1683.12 1713.21C1694.69 1723.76 1706.26 1734.56 1717.58 1745.1C1720.66 1747.93 1724 1749.47 1727.35 1748.96C1730.69 1748.7 1734.03 1746.9 1737.12 1743.3C1739.69 1740.22 1741.75 1736.62 1743.03 1732.24C1744.32 1727.87 1744.83 1723.24 1744.83 1718.36C1744.58 1713.47 1743.8 1708.84 1742 1704.47C1733.52 1697.53 1725.03 1690.33 1716.55 1683.39C1714.23 1686.21 1711.66 1689.3 1709.09 1692.13C1708.83 1691.87 1708.58 1691.61 1708.06 1691.36C1715.26 1680.56 1722.2 1669.5 1728.89 1658.19C1744.83 1670.53 1761.03 1682.87 1776.98 1695.21C1779.55 1691.87 1782.12 1688.53 1784.43 1685.19C1784.69 1685.44 1785.21 1685.7 1785.46 1685.96C1778.26 1698.3 1770.8 1710.39 1763.09 1722.22C1757.69 1717.84 1752.55 1713.47 1747.15 1709.1C1746.63 1709.36 1745.86 1709.61 1745.35 1709.61C1747.4 1718.36 1747.4 1726.84 1745.09 1734.82C1743.03 1743.3 1738.92 1750.76 1732.75 1757.44Z" fill="black"/>
<path d="M1821.2 1638.64C1796.78 1639.93 1772.6 1639.93 1748.69 1638.9C1746.12 1641.73 1743.8 1644.56 1741.23 1647.39C1740.97 1647.13 1740.46 1646.87 1740.2 1646.61C1750.75 1632.21 1760.77 1617.3 1770.29 1601.87C1770.8 1602.13 1771.06 1602.38 1771.58 1602.64C1769.78 1606.24 1767.97 1610.1 1765.92 1613.7C1784.18 1613.7 1802.43 1613.18 1820.69 1611.9C1821.2 1611.13 1821.72 1610.36 1821.98 1609.58C1817.86 1601.61 1813.49 1593.9 1809.12 1586.18C1808.35 1584.9 1807.32 1583.36 1806.03 1582.07C1804.75 1580.78 1803.2 1579.76 1801.4 1578.73C1800.12 1577.96 1798.58 1577.44 1796.78 1577.18C1794.98 1576.93 1793.18 1576.93 1791.38 1577.7C1789.58 1578.21 1787.52 1579.5 1785.72 1581.04C1783.66 1582.84 1781.86 1585.16 1780.06 1588.24C1779.8 1587.98 1779.29 1587.73 1779.03 1587.47C1786.75 1574.1 1794.2 1560.73 1801.15 1546.58C1801.4 1546.84 1801.92 1547.1 1802.18 1547.1C1800.63 1551.21 1799.09 1555.07 1797.29 1559.18C1809.12 1579.76 1820.18 1601.1 1830.72 1622.7C1827.63 1628.1 1824.55 1633.5 1821.2 1638.64ZM1798.32 1563.04C1815.55 1561.5 1832.78 1559.44 1850 1556.61C1850.52 1555.84 1850.78 1554.81 1851.29 1554.04C1846.66 1546.33 1841.78 1538.61 1836.89 1531.15C1836.12 1529.87 1834.83 1528.58 1833.55 1527.3C1832 1526.27 1830.46 1525.24 1828.66 1524.21C1827.12 1523.44 1825.58 1523.18 1824.03 1522.93C1822.23 1522.67 1820.43 1522.93 1818.63 1523.7C1816.83 1524.47 1815.03 1525.75 1812.98 1527.55C1811.18 1529.35 1809.38 1531.93 1807.83 1535.27C1807.58 1535.01 1807.06 1534.75 1806.8 1534.75C1813.75 1520.61 1820.18 1506.21 1826.09 1491.3C1826.35 1491.55 1826.86 1491.55 1827.12 1491.81C1825.83 1495.93 1824.55 1500.3 1823.26 1504.41C1836.38 1524.47 1848.98 1545.04 1861.06 1566.38C1858.23 1572.04 1855.41 1577.7 1852.58 1583.36C1838.95 1585.16 1825.32 1586.44 1811.69 1587.47C1807.32 1579.5 1802.69 1571.27 1798.32 1563.04Z" fill="black"/>
<path d="M1848.2 1423.92C1851.8 1412.35 1855.66 1403.1 1860.29 1396.15C1864.92 1389.21 1869.8 1384.32 1875.2 1381.5C1880.6 1378.67 1886 1378.15 1891.4 1379.7C1884.72 1408.5 1876.75 1436.01 1867.49 1462.75C1866.98 1462.5 1866.72 1462.5 1866.2 1462.24C1871.86 1444.5 1876.75 1426.5 1881.38 1407.98C1875.98 1406.44 1871.35 1405.67 1867.23 1406.44C1863.12 1406.95 1859.52 1408.75 1856.43 1411.84C1853.35 1414.92 1851.03 1419.3 1849.49 1424.95C1847.69 1430.61 1847.17 1435.75 1847.95 1440.64C1848.72 1445.52 1850.52 1449.64 1853.86 1453.5C1857.2 1457.1 1862.09 1460.44 1868.52 1462.75C1872.12 1464.04 1875.72 1464.55 1879.32 1464.3C1883.18 1463.78 1886.78 1462.5 1890.63 1460.18C1894.23 1457.87 1897.83 1454.53 1900.66 1450.15C1903.75 1445.78 1906.32 1440.38 1908.12 1433.7C1909.4 1429.58 1910.18 1425.47 1910.69 1421.1C1911.2 1416.72 1911.2 1412.61 1911.2 1408.5C1910.95 1404.38 1910.43 1400.52 1909.4 1397.18C1908.38 1393.58 1907.09 1390.5 1905.29 1387.92C1905.8 1387.15 1906.58 1386.38 1907.09 1385.61C1909.92 1390.24 1911.98 1395.12 1913.26 1400.27C1914.55 1405.41 1915.06 1411.07 1915.06 1416.72C1915.06 1422.38 1914.29 1428.04 1913.26 1433.44C1912.23 1438.84 1910.95 1444.24 1909.4 1449.38C1906.58 1458.64 1902.98 1466.61 1898.86 1473.04C1894.75 1479.47 1890.38 1484.35 1886 1487.95C1881.38 1491.55 1877 1493.87 1872.38 1494.64C1867.75 1495.67 1863.63 1495.15 1859.78 1493.61C1854.89 1491.55 1851.29 1488.21 1848.46 1483.84C1845.63 1479.47 1843.83 1474.33 1843.06 1468.15C1842.03 1461.98 1842.03 1455.3 1843.06 1448.1C1843.83 1440.12 1845.63 1432.15 1848.2 1423.92Z" fill="black"/>
<path d="M1947.46 1212.29C1947.97 1212.29 1948.23 1212.29 1948.75 1212.29C1947.72 1234.66 1945.66 1256.52 1943.34 1277.87C1942.83 1277.87 1942.57 1277.87 1942.06 1277.61C1942.06 1272.98 1942.32 1268.35 1942.32 1263.98C1928.43 1262.18 1914.54 1260.38 1900.66 1258.58C1896.29 1258.06 1892.94 1259.09 1890.37 1261.66C1887.8 1264.24 1886.26 1268.35 1885.74 1273.75C1885.23 1277.35 1885.49 1281.21 1886.52 1285.07C1887.54 1288.92 1888.83 1292.78 1890.63 1296.64C1892.43 1300.49 1894.23 1303.84 1896.29 1306.92C1898.34 1310.01 1900.14 1312.58 1901.69 1314.64C1912.74 1316.69 1923.8 1319.01 1935.12 1321.07C1936.14 1316.69 1937.17 1312.58 1938.46 1308.21C1938.97 1308.21 1939.23 1308.47 1939.74 1308.47C1936.66 1329.04 1933.06 1349.35 1928.94 1368.9C1928.43 1368.9 1928.17 1368.64 1927.66 1368.64C1928.17 1364.27 1928.69 1359.89 1929.2 1355.27C1911.2 1350.89 1893.2 1346.78 1875.2 1342.41C1874.43 1346.78 1873.4 1351.15 1872.63 1355.52C1872.12 1355.52 1871.86 1355.27 1871.34 1355.27C1873.14 1340.09 1874.43 1324.92 1875.46 1309.49C1882.14 1310.78 1888.83 1312.07 1895.52 1313.35C1895.77 1312.84 1896.29 1312.32 1896.54 1311.55C1892.94 1306.92 1890.12 1301.78 1887.54 1296.12C1885.23 1290.72 1883.43 1284.81 1882.4 1278.38C1881.37 1271.95 1881.37 1265.01 1882.14 1257.55C1882.92 1251.12 1883.94 1245.46 1885.23 1241.09C1886.52 1236.72 1888.32 1233.12 1890.63 1230.81C1892.69 1228.24 1895.26 1226.44 1897.83 1225.41C1900.66 1224.38 1903.49 1223.86 1906.83 1224.12C1919.94 1225.15 1933.06 1226.44 1946.17 1227.46C1945.92 1222.58 1946.69 1217.44 1947.46 1212.29Z" fill="black"/>
<path d="M1935.12 1174.49C1935.12 1170.63 1935.63 1167.29 1936.15 1164.21C1936.92 1161.12 1937.69 1158.55 1938.97 1156.75C1940.26 1154.95 1941.8 1153.92 1943.6 1153.92C1945.4 1153.92 1946.69 1154.95 1947.97 1156.75C1949.26 1158.55 1950.03 1161.12 1950.8 1164.21C1951.32 1167.29 1951.83 1170.89 1951.57 1174.75C1951.57 1178.61 1951.06 1181.95 1950.29 1185.29C1949.52 1188.38 1948.49 1190.95 1947.2 1192.75C1945.92 1194.55 1944.37 1195.32 1942.83 1195.32C1941.03 1195.32 1939.49 1194.29 1938.46 1192.24C1937.17 1190.44 1936.4 1187.86 1935.89 1184.78C1935.37 1181.69 1935.12 1178.35 1935.12 1174.49Z" fill="black"/>
<path d="M788.406 1338.84C719.203 1387.42 578.079 1472.45 509.995 1483.63C500.725 1486.51 500.885 1497.06 500.725 1501.37C500.725 1527.59 522.141 1556.51 532.53 1564.82C540.681 1571.54 550.27 1570.74 553.946 1569.46C686.599 1527.43 940.877 1309.75 1021.27 1181.89C1024.94 1180.93 1014.24 1213.05 952.064 1285.61C890.053 1358.01 838.91 1478.04 838.91 1534.94C855.691 1776.91 1135.22 1734.88 1170.7 1608.78C1258.6 1683.57 1350.98 1646.01 1368.88 1634.99C1521.19 1539.73 1446.24 1398.93 1394.13 1339.79C1353.06 1293.13 1226.8 1219.29 1177.25 1187.48C1156.16 1173.9 1121 1141.77 1145.45 1118.44C1185.57 1080.08 1269.79 1217.37 1352.9 1274.43C1481.08 1362.17 1626.68 1386.46 1686.45 1243.58C1737.11 1122.59 1650.97 1053.07 1617.25 1029.74C1703.23 970.923 1714.42 765.391 1540.69 727.993C1400.05 697.786 1251.09 889.094 1189.4 983.869C1177.25 1002.57 1142.73 1033.41 1124.99 1014.71C1107.41 996.335 1131.86 968.686 1145.61 957.818C1290.41 836.352 1379.27 686.918 1361.53 608.445C1305.27 401.954 1100.54 443.188 1042.68 540.201C945.512 440.152 840.188 483.943 800.552 518.785C636.095 672.694 839.549 856.011 950.945 935.283C977.156 953.982 1041.56 983.869 1008.96 1011.84C970.604 1044.76 941.676 984.828 918.342 951.105C796.876 775.62 639.93 700.024 538.922 787.766C420.973 890.372 487.46 1002.57 532.37 1058.67C459.81 1105.81 449.262 1181.57 452.938 1213.69C468.6 1356.42 587.509 1378.95 645.524 1373.36C691.553 1363.77 795.118 1322.85 870.714 1243.58C944.233 1166.39 965.17 1149.6 968.846 1152.96C941.676 1194.04 865.76 1284.5 788.406 1338.84Z" fill="url(#paint0_linear_714_39)"/>
<path d="M1008.32 1717.3C1001.45 1717.3 994.416 1716.98 987.544 1716.18C946.629 1712.02 910.829 1695.24 884.139 1667.59C853.293 1635.79 835.712 1591.2 831.717 1535.42V1534.94C831.717 1485.39 869.435 1386.62 922.976 1311.19C889.892 1344.75 852.174 1379.43 811.739 1413.31C712.01 1496.9 618.833 1556.35 556.023 1576.17C550.589 1577.93 538.282 1578.89 527.734 1570.26C516.067 1560.83 493.372 1529.82 493.372 1501.21V1500.74C493.372 1500.42 493.372 1500.1 493.372 1499.62C493.692 1494.5 494.331 1480.6 507.756 1476.6L508.715 1476.44C572.804 1465.89 708.334 1386.14 784.25 1332.92C840.028 1293.77 892.929 1237.67 927.93 1195.15C914.825 1208.1 897.883 1225.36 875.828 1248.54C796.716 1331.64 691.393 1371.12 646.802 1380.39L646.003 1380.55C631.299 1381.99 579.197 1384.38 529.652 1355.3C481.865 1327.33 452.777 1278.58 445.745 1214.33C441.749 1180.61 453.097 1105.65 521.98 1056.91C491.614 1017.59 473.394 978.755 467.481 941.676C458.211 882.381 480.586 828.841 534.127 782.332C568.808 752.286 611.801 739.34 658.629 745.253C707.694 751.327 759.637 777.218 809.981 819.251C761.555 762.834 735.184 708.494 731.828 657.83C728.312 604.929 749.728 556.503 795.597 513.51L795.757 513.351C816.534 495.131 854.572 474.514 899.482 471.637C935.282 469.399 988.343 477.71 1041.4 528.853C1057.71 505.2 1082.48 485.062 1112.05 471.317C1145.61 455.814 1183.01 449.901 1217.69 454.696C1260.04 460.449 1336.12 487.939 1368.24 606.527V606.847C1377.35 647.122 1360.41 705.298 1320.45 770.665C1280.34 836.352 1219.77 904.597 1150.08 963.252L1149.92 963.411C1139.06 972.042 1126.75 986.746 1125.95 998.573C1125.63 1003.05 1126.91 1006.56 1130.11 1009.76C1132.66 1012.48 1135.86 1013.6 1140.01 1013.28C1154.88 1011.84 1175.02 992.659 1183.33 980.033C1228.4 910.83 1387.26 687.557 1542.29 720.96C1582.08 729.431 1614.69 747.012 1639.14 772.903C1660.56 795.598 1675.26 824.845 1681.65 857.289C1688.21 890.852 1685.81 927.132 1674.94 959.736C1665.19 988.664 1649.37 1013.12 1629.55 1029.42C1705.47 1086.16 1728.16 1162.71 1693.16 1246.3C1671.11 1298.88 1636.74 1332.44 1590.88 1346.03C1525.03 1365.53 1439.2 1342.03 1348.9 1280.34C1316.62 1258.28 1285.29 1225.52 1255.09 1193.72C1211.46 1148.01 1170.22 1104.85 1150.56 1123.55C1145.93 1127.87 1144.01 1132.66 1144.49 1138.1C1145.93 1152.64 1163.99 1170.22 1181.25 1181.41C1190.04 1187 1201.07 1193.88 1214.01 1201.87C1274.11 1239.27 1365.05 1295.68 1399.57 1334.84C1437.6 1377.99 1474.68 1447.99 1464.77 1515.12C1457.58 1564.82 1426.58 1607.02 1372.72 1640.74C1359.45 1649.05 1328.45 1661.04 1289.77 1661.04C1254.93 1661.04 1214.01 1651.29 1174.22 1620.6C1152 1677.18 1082.48 1717.3 1008.32 1717.3ZM846.101 1534.78C855.85 1673.5 949.346 1697.96 988.982 1701.95C1026.06 1705.79 1066.02 1697.8 1098.78 1680.22C1132.34 1662.16 1155.36 1636.11 1163.67 1606.7L1166.71 1595.83L1175.18 1603.02C1211.14 1633.71 1251.73 1648.25 1295.52 1646.49C1330.84 1645.06 1357.53 1633.07 1364.73 1628.43C1414.75 1597.11 1443.52 1558.27 1450.23 1512.88C1459.34 1450.55 1424.18 1384.86 1388.38 1344.11C1355.3 1306.55 1265.48 1250.77 1206.02 1213.85C1193.08 1205.86 1182.05 1198.99 1173.1 1193.24C1166.39 1188.92 1132.34 1165.91 1129.79 1139.22C1128.83 1129.31 1132.5 1120.2 1140.17 1112.85C1161.27 1092.71 1188.92 1113.01 1198.03 1119.72C1218.17 1134.42 1240.86 1158.24 1265 1183.49C1294.72 1214.65 1325.57 1246.94 1356.57 1268.19C1441.92 1326.69 1525.67 1349.86 1586.4 1331.96C1627.95 1319.66 1659.28 1288.97 1679.58 1240.54C1722.25 1138.74 1666.79 1072.73 1612.93 1035.33L1604.3 1029.42L1612.93 1023.5C1656.24 993.778 1679.58 923.456 1667.11 859.846C1659.6 821.809 1633.07 755.003 1538.93 734.705C1479.96 722.079 1412.99 748.77 1339.95 814.137C1273.47 873.591 1220.73 948.388 1195.15 987.545C1185.08 1002.89 1161.75 1025.42 1141.13 1027.34C1132.66 1028.14 1125.15 1025.42 1119.4 1019.51C1113.64 1013.44 1110.77 1005.76 1111.41 997.294C1113 974.759 1137.46 954.461 1140.65 951.904C1209.22 894.368 1268.67 827.242 1307.99 762.994C1345.87 700.823 1362.33 646.483 1354.18 609.884C1331.96 528.054 1282.74 477.87 1215.61 468.6C1151.2 459.81 1079.44 491.934 1048.76 543.557L1043.96 551.548L1037.41 544.836C996.174 502.323 950.146 482.505 900.441 485.701C859.206 488.418 824.365 507.118 805.346 523.739C762.833 563.535 743.015 608.126 746.212 656.392C754.043 773.862 895.007 886.217 955.1 929.05C959.575 932.246 965.329 935.922 971.562 939.758C995.855 954.941 1023.5 972.362 1025.1 993.298C1025.74 1001.93 1021.91 1009.92 1013.6 1017.11C1003.21 1025.9 992.499 1029.58 981.631 1027.98C957.338 1024.46 938.798 995.536 922.336 970.124C918.82 964.69 915.464 959.576 912.268 954.941C833.475 840.987 740.298 769.706 656.871 759.158C613.559 753.724 575.361 765.071 543.556 792.721C439.032 883.66 482.824 984.828 537.963 1053.71L542.917 1059.94L536.205 1064.26C467.481 1108.85 456.293 1180.77 459.969 1212.42C474.673 1345.87 582.553 1371.6 644.245 1365.85C694.429 1355.3 794.318 1312.62 865.28 1238.15C900.281 1201.39 925.053 1176.62 940.876 1162.23C957.977 1146.73 966.767 1140.97 973.48 1147.21L977.955 1151.36L974.598 1156.48C950.625 1192.76 874.549 1286.57 792.4 1344.27C732.307 1387.1 584.471 1478.36 511.752 1490.67C509.195 1491.63 508.236 1494.18 507.916 1500.58C507.916 1500.9 507.916 1501.37 507.916 1501.69C508.076 1525.67 528.853 1552.68 537.004 1559.39C542.917 1564.19 549.79 1563.39 551.707 1562.75C685.479 1520.39 938.159 1300.8 1015.19 1178.21L1016.79 1175.82L1019.67 1175.18C1022.86 1174.38 1026.22 1175.66 1027.98 1178.53C1029.58 1181.09 1032.45 1185.72 1015.67 1213.37C1006.72 1228.08 989.302 1253.49 957.657 1290.57C894.847 1363.45 846.261 1481.56 846.101 1534.78ZM878.225 887.176C894.048 905.556 909.391 925.693 924.254 947.11C927.611 951.904 930.967 957.178 934.483 962.612C948.547 984.348 965.968 1011.36 983.708 1014.08C990.421 1015.03 997.133 1012.48 1004.17 1006.4C1011.04 1000.49 1010.72 996.015 1010.72 994.577C1009.76 980.832 982.11 963.571 963.89 952.224C957.497 948.228 951.584 944.552 946.789 941.036C927.451 927.292 903.317 909.072 878.225 887.176Z" fill="black"/>
<defs>
<linearGradient id="paint0_linear_714_39" x1="1077.21" y1="964.53" x2="1077.21" y2="1710.1" gradientUnits="userSpaceOnUse">
<stop stop-color="#FF3B3B"/>
<stop offset="1" stop-color="#FFEC1B"/>
</linearGradient>
</defs>
</svg>
